<mxfile host="app.diagrams.net" modified="2022-02-15T03:30:52.071Z" agent="5.0 (Macintosh)" etag="8wDD0JEUMrQzB5WZdMsq" version="16.5.6" type="github">
  <diagram id="EVHV0pkEKKtFBXucy3Qs" name="Page-1">
    <mxGraphModel dx="1426" dy="741" grid="1" gridSize="10" guides="1" tooltips="1" connect="1" arrows="1" fold="1" page="1" pageScale="1" pageWidth="850" pageHeight="1100" math="0" shadow="0">
      <root>
        <mxCell id="0" />
        <mxCell id="1" parent="0" />
        <mxCell id="HRmJnG3P_lqiaNpLdgsk-16" style="edgeStyle=orthogonalEdgeStyle;rounded=0;orthogonalLoop=1;jettySize=auto;html=1;exitX=0;exitY=0.5;exitDx=0;exitDy=0;" parent="1" source="HRmJnG3P_lqiaNpLdgsk-12" edge="1">
          <mxGeometry relative="1" as="geometry">
            <mxPoint x="310" y="220" as="targetPoint" />
          </mxGeometry>
        </mxCell>
        <mxCell id="HRmJnG3P_lqiaNpLdgsk-6" value="" style="rounded=0;whiteSpace=wrap;html=1;" parent="1" vertex="1">
          <mxGeometry x="190" y="50" width="120" height="320" as="geometry" />
        </mxCell>
        <mxCell id="HRmJnG3P_lqiaNpLdgsk-2" value="Amazon Elasticsearch Service" style="sketch=0;outlineConnect=0;fontColor=#232F3E;gradientColor=none;strokeColor=#ffffff;fillColor=#232F3E;dashed=0;verticalLabelPosition=middle;verticalAlign=bottom;align=center;html=1;whiteSpace=wrap;fontSize=10;fontStyle=1;spacing=3;shape=mxgraph.aws4.productIcon;prIcon=mxgraph.aws4.elasticsearch_service;" parent="1" vertex="1">
          <mxGeometry x="210" y="90" width="80" height="120" as="geometry" />
        </mxCell>
        <mxCell id="HRmJnG3P_lqiaNpLdgsk-5" value="Amazon DynamoDB" style="sketch=0;outlineConnect=0;fontColor=#232F3E;gradientColor=none;strokeColor=#ffffff;fillColor=#232F3E;dashed=0;verticalLabelPosition=middle;verticalAlign=bottom;align=center;html=1;whiteSpace=wrap;fontSize=10;fontStyle=1;spacing=3;shape=mxgraph.aws4.productIcon;prIcon=mxgraph.aws4.dynamodb;" parent="1" vertex="1">
          <mxGeometry x="210" y="240" width="80" height="110" as="geometry" />
        </mxCell>
        <mxCell id="HRmJnG3P_lqiaNpLdgsk-7" value="Data Index" style="text;html=1;strokeColor=none;fillColor=none;align=center;verticalAlign=middle;whiteSpace=wrap;rounded=0;" parent="1" vertex="1">
          <mxGeometry x="190" y="50" width="70" height="30" as="geometry" />
        </mxCell>
        <mxCell id="HRmJnG3P_lqiaNpLdgsk-11" value="Build Index" style="edgeStyle=orthogonalEdgeStyle;rounded=0;orthogonalLoop=1;jettySize=auto;html=1;entryX=0;entryY=0.5;entryDx=0;entryDy=0;" parent="1" source="HRmJnG3P_lqiaNpLdgsk-9" target="HRmJnG3P_lqiaNpLdgsk-6" edge="1">
          <mxGeometry relative="1" as="geometry" />
        </mxCell>
        <mxCell id="HRmJnG3P_lqiaNpLdgsk-9" value="FDP Data pipeline" style="html=1;verticalLabelPosition=bottom;align=center;labelBackgroundColor=#ffffff;verticalAlign=top;strokeWidth=2;strokeColor=#004182;shadow=0;dashed=0;shape=mxgraph.ios7.icons.data;" parent="1" vertex="1">
          <mxGeometry x="40" y="175" width="60" height="70" as="geometry" />
        </mxCell>
        <mxCell id="HRmJnG3P_lqiaNpLdgsk-18" style="edgeStyle=orthogonalEdgeStyle;rounded=0;orthogonalLoop=1;jettySize=auto;html=1;exitX=0;exitY=0.5;exitDx=0;exitDy=0;" parent="1" edge="1">
          <mxGeometry relative="1" as="geometry">
            <mxPoint x="619" y="220" as="sourcePoint" />
            <mxPoint x="474" y="190" as="targetPoint" />
            <Array as="points">
              <mxPoint x="619" y="190" />
            </Array>
          </mxGeometry>
        </mxCell>
        <mxCell id="HRmJnG3P_lqiaNpLdgsk-23" value="getfeedata" style="edgeLabel;html=1;align=center;verticalAlign=middle;resizable=0;points=[];" parent="HRmJnG3P_lqiaNpLdgsk-18" vertex="1" connectable="0">
          <mxGeometry x="-0.2235" y="-1" relative="1" as="geometry">
            <mxPoint x="-32" y="1" as="offset" />
          </mxGeometry>
        </mxCell>
        <mxCell id="HRmJnG3P_lqiaNpLdgsk-20" value="" style="group" parent="1" vertex="1" connectable="0">
          <mxGeometry x="375" y="140" width="100" height="160" as="geometry" />
        </mxCell>
        <mxCell id="HRmJnG3P_lqiaNpLdgsk-12" value="" style="rounded=0;whiteSpace=wrap;html=1;strokeColor=#000000;" parent="HRmJnG3P_lqiaNpLdgsk-20" vertex="1">
          <mxGeometry width="100" height="160" as="geometry" />
        </mxCell>
        <mxCell id="HRmJnG3P_lqiaNpLdgsk-8" value="Data API" style="aspect=fixed;perimeter=ellipsePerimeter;html=1;align=center;shadow=0;dashed=0;spacingTop=3;image;image=img/lib/active_directory/generic_server.svg;" parent="HRmJnG3P_lqiaNpLdgsk-20" vertex="1">
          <mxGeometry x="20" y="10" width="61.6" height="110" as="geometry" />
        </mxCell>
        <mxCell id="HRmJnG3P_lqiaNpLdgsk-21" value="" style="group" parent="1" vertex="1" connectable="0">
          <mxGeometry x="620" y="140" width="100" height="160" as="geometry" />
        </mxCell>
        <mxCell id="HRmJnG3P_lqiaNpLdgsk-13" value="" style="rounded=0;whiteSpace=wrap;html=1;strokeColor=#000000;" parent="HRmJnG3P_lqiaNpLdgsk-21" vertex="1">
          <mxGeometry width="100" height="160" as="geometry" />
        </mxCell>
        <mxCell id="HRmJnG3P_lqiaNpLdgsk-14" value="FIFA" style="aspect=fixed;perimeter=ellipsePerimeter;html=1;align=center;shadow=0;dashed=0;spacingTop=3;image;image=img/lib/active_directory/generic_server.svg;" parent="HRmJnG3P_lqiaNpLdgsk-21" vertex="1">
          <mxGeometry x="20" y="10" width="61.6" height="110" as="geometry" />
        </mxCell>
        <mxCell id="HRmJnG3P_lqiaNpLdgsk-25" value="caishenbreakdown" style="edgeStyle=orthogonalEdgeStyle;rounded=0;orthogonalLoop=1;jettySize=auto;html=1;exitX=0;exitY=0.75;exitDx=0;exitDy=0;entryX=1;entryY=0.75;entryDx=0;entryDy=0;" parent="1" source="HRmJnG3P_lqiaNpLdgsk-13" target="HRmJnG3P_lqiaNpLdgsk-12" edge="1">
          <mxGeometry relative="1" as="geometry" />
        </mxCell>
      </root>
    </mxGraphModel>
  </diagram>
</mxfile>
